<svg width="512" height="512" viewBox="0 0 512 512" fill="none" xmlns="http://www.w3.org/2000/svg">
<rect width="512" height="512" rx="43" fill="white"/>
<path d="M274.336 390.096C256.587 390.096 242.592 384.293 232.352 372.688C222.112 360.741 216.992 342.821 216.992 318.928V107.984C216.992 103.547 219.211 101.328 223.648 101.328H226.208C242.251 101.328 254.368 105.083 262.56 112.592C271.093 120.101 275.36 133.072 275.36 151.504V312.272C275.36 330.704 281.845 339.92 294.816 339.92C299.595 339.92 303.349 339.237 306.08 337.872C309.152 336.507 312.395 334.629 315.808 332.24C316.491 331.557 317.344 331.045 318.368 330.704C319.392 330.021 320.587 329.68 321.952 329.68C324 329.68 325.365 330.533 326.048 332.24C327.072 333.947 327.584 335.653 327.584 337.36C327.584 345.211 325.877 353.232 322.464 361.424C319.392 369.616 313.931 376.443 306.08 381.904C298.571 387.365 287.989 390.096 274.336 390.096Z" fill="black"/>
</svg>
