<svg width="2612" height="367" viewBox="0 0 2612 367" fill="none" xmlns="http://www.w3.org/2000/svg">
<path d="M57.336 289.096C39.5867 289.096 25.592 283.293 15.352 271.688C5.112 259.741 -0.00799942 241.821 -0.00799942 217.928V6.98398C-0.00799942 2.54664 2.21067 0.327972 6.648 0.327972H9.208C25.2507 0.327972 37.368 4.08264 45.56 11.592C54.0933 19.1013 58.36 32.072 58.36 50.504V211.272C58.36 229.704 64.8453 238.92 77.816 238.92C82.5947 238.92 86.3493 238.237 89.08 236.872C92.152 235.507 95.3947 233.629 98.808 231.24C99.4907 230.557 100.344 230.045 101.368 229.704C102.392 229.021 103.587 228.68 104.952 228.68C107 228.68 108.365 229.533 109.048 231.24C110.072 232.947 110.584 234.653 110.584 236.36C110.584 244.211 108.877 252.232 105.464 260.424C102.392 268.616 96.9307 275.443 89.08 280.904C81.5707 286.365 70.9893 289.096 57.336 289.096ZM268.256 262.984C261.771 271.176 253.579 277.661 243.68 282.44C233.781 287.219 222.859 289.608 210.912 289.608C191.456 289.608 175.243 285 162.272 275.784C149.301 266.227 139.403 253.597 132.576 237.896C126.091 222.195 122.848 204.787 122.848 185.672C122.848 166.557 126.432 149.32 133.6 133.96C140.768 118.259 151.008 105.971 164.32 97.096C177.632 87.88 193.504 83.272 211.936 83.272C227.637 83.272 240.437 86.0027 250.336 91.464C260.576 96.9253 268.597 102.899 274.4 109.384C278.155 102.216 283.616 97.096 290.784 94.024C298.293 90.952 307.339 89.416 317.92 89.416H320.48C324.917 89.416 327.136 91.6347 327.136 96.072V278.344C327.136 282.781 324.917 285 320.48 285H274.912C270.475 285 268.256 282.781 268.256 278.344V262.984ZM226.784 234.824C231.221 234.824 236.683 233.8 243.168 231.752C249.653 229.363 255.456 224.755 260.576 217.928C265.696 210.76 268.256 200.179 268.256 186.184C268.256 172.189 265.696 161.949 260.576 155.464C255.797 148.979 250.165 144.883 243.68 143.176C237.195 141.128 231.563 140.104 226.784 140.104C222.347 140.104 216.715 141.128 209.888 143.176C203.061 144.883 196.917 148.979 191.456 155.464C185.995 161.949 183.264 172.189 183.264 186.184C183.264 200.179 185.824 210.76 190.944 217.928C196.405 224.755 202.549 229.363 209.376 231.752C216.544 233.8 222.347 234.824 226.784 234.824ZM422.764 113.48C429.591 104.264 437.953 97.2667 447.852 92.488C457.751 87.368 467.991 84.808 478.572 84.808C502.807 84.808 521.921 92.1467 535.916 106.824C549.911 121.16 556.908 143.517 556.908 173.896V278.344C556.908 282.781 554.689 285 550.252 285H504.684C500.247 285 498.028 282.781 498.028 278.344V180.04C498.028 164.339 494.273 153.587 486.764 147.784C479.596 141.981 471.404 139.08 462.188 139.08C452.972 139.08 444.78 141.981 437.612 147.784C430.444 153.587 426.86 164.168 426.86 179.528V278.344C426.86 282.781 424.641 285 420.204 285H375.148C370.711 285 368.492 282.781 368.492 278.344V96.072C368.492 91.6347 370.711 89.416 375.148 89.416H377.708C389.655 89.416 399.212 91.2933 406.38 95.048C413.889 98.4613 419.351 104.605 422.764 113.48ZM736.756 108.872V6.98398C736.756 2.54664 738.975 0.327972 743.412 0.327972H745.972C762.356 0.327972 774.644 4.08264 782.836 11.592C791.369 19.1013 795.636 32.072 795.636 50.504V278.344C795.636 282.781 793.417 285 788.98 285H743.412C738.975 285 736.756 282.781 736.756 278.344V262.984C730.271 271.176 722.079 277.661 712.18 282.44C702.281 287.219 691.359 289.608 679.412 289.608C659.956 289.608 643.743 285 630.772 275.784C617.801 266.227 607.903 253.597 601.076 237.896C594.591 222.195 591.348 204.787 591.348 185.672C591.348 166.557 594.761 149.32 601.588 133.96C608.756 118.259 619.167 105.971 632.82 97.096C646.473 87.88 663.199 83.272 682.996 83.272C695.967 83.272 706.719 85.6613 715.252 90.44C724.127 94.8773 731.295 101.021 736.756 108.872ZM695.284 234.824C699.721 234.824 705.183 233.8 711.668 231.752C718.153 229.363 723.956 224.755 729.076 217.928C734.196 210.76 736.756 200.179 736.756 186.184C736.756 172.189 734.196 161.949 729.076 155.464C724.297 148.979 718.665 144.883 712.18 143.176C705.695 141.128 700.063 140.104 695.284 140.104C690.847 140.104 685.215 141.128 678.388 143.176C671.561 144.883 665.417 148.979 659.956 155.464C654.495 161.949 651.764 172.189 651.764 186.184C651.764 200.179 654.324 210.76 659.444 217.928C664.905 224.755 671.049 229.363 677.876 231.752C685.044 233.8 690.847 234.824 695.284 234.824ZM890.752 111.944C897.579 103.752 905.429 97.2667 914.304 92.488C923.179 87.368 933.077 84.808 944 84.808C974.037 84.808 995.541 95.9013 1008.51 118.088C1015.34 108.872 1023.87 101.021 1034.11 94.536C1044.69 88.0507 1056.47 84.808 1069.44 84.808C1093.67 84.808 1112.62 92.1467 1126.27 106.824C1139.93 121.16 1146.75 143.517 1146.75 173.896V278.344C1146.75 282.781 1144.53 285 1140.1 285H1095.04C1090.6 285 1088.38 282.781 1088.38 278.344V179.016C1088.38 163.656 1085.14 153.075 1078.66 147.272C1072.17 141.128 1064.49 138.056 1055.62 138.056C1047.42 138.056 1039.57 141.128 1032.06 147.272C1024.9 153.075 1021.31 163.485 1021.31 178.504V278.344C1021.31 282.781 1019.09 285 1014.66 285H969.088C964.651 285 962.432 282.781 962.432 278.344V179.016C962.432 163.656 959.189 153.075 952.704 147.272C946.56 141.128 939.051 138.056 930.176 138.056C921.643 138.056 913.621 141.128 906.112 147.272C898.944 153.075 895.36 163.485 895.36 178.504V278.344C895.36 282.781 893.141 285 888.704 285H843.648C839.211 285 836.992 282.781 836.992 278.344V96.072C836.992 91.6347 839.211 89.416 843.648 89.416H846.208C857.472 89.416 866.859 91.1227 874.368 94.536C881.877 97.9493 887.339 103.752 890.752 111.944ZM1326.76 262.984C1320.27 271.176 1312.08 277.661 1302.18 282.44C1292.28 287.219 1281.36 289.608 1269.41 289.608C1249.96 289.608 1233.74 285 1220.77 275.784C1207.8 266.227 1197.9 253.597 1191.08 237.896C1184.59 222.195 1181.35 204.787 1181.35 185.672C1181.35 166.557 1184.93 149.32 1192.1 133.96C1199.27 118.259 1209.51 105.971 1222.82 97.096C1236.13 87.88 1252 83.272 1270.44 83.272C1286.14 83.272 1298.94 86.0027 1308.84 91.464C1319.08 96.9253 1327.1 102.899 1332.9 109.384C1336.65 102.216 1342.12 97.096 1349.28 94.024C1356.79 90.952 1365.84 89.416 1376.42 89.416H1378.98C1383.42 89.416 1385.64 91.6347 1385.64 96.072V278.344C1385.64 282.781 1383.42 285 1378.98 285H1333.41C1328.97 285 1326.76 282.781 1326.76 278.344V262.984ZM1285.28 234.824C1289.72 234.824 1295.18 233.8 1301.67 231.752C1308.15 229.363 1313.96 224.755 1319.08 217.928C1324.2 210.76 1326.76 200.179 1326.76 186.184C1326.76 172.189 1324.2 161.949 1319.08 155.464C1314.3 148.979 1308.67 144.883 1302.18 143.176C1295.69 141.128 1290.06 140.104 1285.28 140.104C1280.85 140.104 1275.21 141.128 1268.39 143.176C1261.56 144.883 1255.42 148.979 1249.96 155.464C1244.49 161.949 1241.76 172.189 1241.76 186.184C1241.76 200.179 1244.32 210.76 1249.44 217.928C1254.91 224.755 1261.05 229.363 1267.88 231.752C1275.04 233.8 1280.85 234.824 1285.28 234.824ZM1482.8 117.576C1488.94 106.653 1495.6 99.3147 1502.77 95.56C1510.28 91.464 1521.37 89.416 1536.05 89.416H1542.19C1546.63 89.416 1548.85 91.6347 1548.85 96.072V137.544C1548.85 141.981 1546.63 144.2 1542.19 144.2H1527.34C1514.71 144.2 1505.33 146.419 1499.18 150.856C1493.38 154.952 1489.63 161.096 1487.92 169.288C1486.21 177.139 1485.36 186.696 1485.36 197.96V278.344C1485.36 282.781 1483.14 285 1478.7 285H1433.65C1429.21 285 1426.99 282.781 1426.99 278.344V96.072C1426.99 91.6347 1429.21 89.416 1433.65 89.416H1436.21C1448.84 89.416 1458.91 91.6347 1466.42 96.072C1474.27 100.509 1479.73 107.677 1482.8 117.576ZM1637.86 227.144V278.344C1637.86 282.781 1635.64 285 1631.2 285H1586.15C1581.71 285 1579.49 282.781 1579.49 278.344V6.98398C1579.49 2.54664 1581.71 0.327972 1586.15 0.327972H1588.71C1604.75 0.327972 1616.87 4.08264 1625.06 11.592C1633.59 19.1013 1637.86 32.072 1637.86 50.504V155.464L1690.08 96.072C1694.18 91.6347 1698.28 89.416 1702.37 89.416H1754.08C1756.13 89.416 1757.33 90.2693 1757.67 91.976C1758.35 93.3413 1758.01 94.7067 1756.64 96.072L1698.28 161.096L1763.81 278.344C1764.49 279.709 1764.49 281.245 1763.81 282.952C1763.13 284.317 1761.93 285 1760.23 285H1709.03C1703.57 285 1699.64 282.781 1697.25 278.344L1658.34 204.616L1637.86 227.144ZM1785.44 223.56C1794.66 230.045 1803.71 234.995 1812.58 238.408C1821.45 241.821 1831.69 243.528 1843.3 243.528C1860.37 243.528 1868.9 238.237 1868.9 227.656C1868.9 222.536 1865.83 218.611 1859.68 215.88C1853.88 212.808 1846.54 209.907 1837.67 207.176C1829.13 204.445 1820.43 201.032 1811.56 196.936C1803.02 192.499 1795.68 186.525 1789.54 179.016C1783.74 171.165 1780.84 160.755 1780.84 147.784C1780.84 131.741 1784.59 119.112 1792.1 109.896C1799.95 100.68 1810.02 94.024 1822.31 89.928C1834.6 85.832 1847.23 83.784 1860.2 83.784C1874.87 83.784 1887.5 86.1733 1898.08 90.952C1907.98 95.3893 1914.64 100.851 1918.05 107.336C1921.81 113.48 1921.81 122.525 1918.05 134.472L1916.52 139.592C1915.49 142.323 1913.96 143.688 1911.91 143.688C1910.54 143.688 1909.35 143.517 1908.32 143.176C1907.3 142.493 1906.11 141.981 1904.74 141.64C1896.21 137.544 1888.19 134.643 1880.68 132.936C1873.51 131.229 1866.17 130.376 1858.66 130.376C1853.88 130.376 1849.44 131.4 1845.35 133.448C1841.59 135.496 1839.72 139.08 1839.72 144.2C1839.72 149.32 1842.62 153.416 1848.42 156.488C1854.56 159.56 1861.9 162.632 1870.44 165.704C1879.31 168.435 1888.01 172.019 1896.55 176.456C1905.42 180.893 1912.76 186.696 1918.56 193.864C1924.71 201.032 1927.78 210.589 1927.78 222.536C1927.78 242.675 1920.78 259.059 1906.79 271.688C1892.79 283.976 1874.19 290.12 1850.98 290.12C1829.13 290.12 1810.87 284.659 1796.2 273.736C1781.86 262.472 1774.69 248.819 1774.69 232.776C1774.69 225.608 1776.91 222.024 1781.35 222.024C1782.03 222.024 1782.71 222.195 1783.4 222.536C1784.42 222.877 1785.1 223.219 1785.44 223.56ZM2112.13 255.816C2104.62 267.763 2095.06 276.467 2083.46 281.928C2071.85 287.048 2059.56 289.608 2046.59 289.608C2028.16 289.608 2012.29 285.341 1998.98 276.808C1986.01 267.933 1975.94 256.328 1968.77 241.992C1961.94 227.315 1958.53 211.272 1958.53 193.864C1958.53 175.091 1962.28 158.536 1969.79 144.2C1977.64 129.523 1988.22 118.088 2001.54 109.896C2015.19 101.363 2030.72 97.096 2048.13 97.096C2061.78 97.096 2074.24 99.9973 2085.5 105.8C2097.11 111.261 2106.15 118.941 2112.64 128.84C2112.64 118.941 2114.52 111.773 2118.27 107.336C2122.03 102.899 2126.98 100.68 2133.12 100.68H2135.68C2137.39 100.68 2138.24 101.704 2138.24 103.752V281.928C2138.24 283.976 2137.39 285 2135.68 285H2114.69C2112.98 285 2112.13 283.976 2112.13 281.928V255.816ZM2045.57 265.544C2056.83 265.544 2067.41 263.325 2077.31 258.888C2087.55 254.451 2095.91 247.112 2102.4 236.872C2108.89 226.291 2112.13 211.955 2112.13 193.864C2112.13 175.091 2108.71 160.584 2101.89 150.344C2095.4 139.763 2087.21 132.253 2077.31 127.816C2067.75 123.379 2058.03 121.16 2048.13 121.16C2028.33 121.16 2012.8 127.987 2001.54 141.64C1990.27 155.293 1984.64 172.701 1984.64 193.864C1984.64 209.907 1987.54 223.219 1993.34 233.8C1999.49 244.381 2007.17 252.403 2016.38 257.864C2025.6 262.984 2035.33 265.544 2045.57 265.544ZM2224.82 257.352V363.848C2224.82 365.896 2223.97 366.92 2222.26 366.92H2201.78C2200.07 366.92 2199.22 365.896 2199.22 363.848V103.752C2199.22 101.704 2200.07 100.68 2201.78 100.68H2204.34C2210.14 100.68 2214.92 103.069 2218.68 107.848C2222.77 112.285 2224.82 118.771 2224.82 127.304V130.376C2231.65 120.136 2240.69 112.115 2251.96 106.312C2263.22 100.168 2276.53 97.096 2291.89 97.096C2318.17 97.096 2339.17 106.141 2354.87 124.232C2370.91 141.981 2378.93 165.192 2378.93 193.864C2378.93 211.613 2375.35 227.827 2368.18 242.504C2361.35 256.84 2351.45 268.275 2338.48 276.808C2325.51 285.341 2310.15 289.608 2292.4 289.608C2278.41 289.608 2265.44 287.048 2253.49 281.928C2241.55 276.808 2231.99 268.616 2224.82 257.352ZM2290.87 265.544C2301.45 265.544 2311.35 262.984 2320.56 257.864C2329.78 252.403 2337.29 244.381 2343.09 233.8C2349.24 222.877 2352.31 209.565 2352.31 193.864C2352.31 172.36 2346.68 154.952 2335.41 141.64C2324.15 127.987 2308.79 121.16 2289.33 121.16C2279.43 121.16 2269.53 123.379 2259.64 127.816C2249.74 132.253 2241.37 139.763 2234.55 150.344C2228.06 160.584 2224.82 175.091 2224.82 193.864C2224.82 211.613 2228.23 225.779 2235.06 236.36C2241.89 246.6 2250.42 254.109 2260.66 258.888C2270.9 263.325 2280.97 265.544 2290.87 265.544ZM2457.32 257.352V363.848C2457.32 365.896 2456.47 366.92 2454.76 366.92H2434.28C2432.57 366.92 2431.72 365.896 2431.72 363.848V103.752C2431.72 101.704 2432.57 100.68 2434.28 100.68H2436.84C2442.64 100.68 2447.42 103.069 2451.18 107.848C2455.27 112.285 2457.32 118.771 2457.32 127.304V130.376C2464.15 120.136 2473.19 112.115 2484.46 106.312C2495.72 100.168 2509.03 97.096 2524.39 97.096C2550.67 97.096 2571.67 106.141 2587.37 124.232C2603.41 141.981 2611.43 165.192 2611.43 193.864C2611.43 211.613 2607.85 227.827 2600.68 242.504C2593.85 256.84 2583.95 268.275 2570.98 276.808C2558.01 285.341 2542.65 289.608 2524.9 289.608C2510.91 289.608 2497.94 287.048 2485.99 281.928C2474.05 276.808 2464.49 268.616 2457.32 257.352ZM2523.37 265.544C2533.95 265.544 2543.85 262.984 2553.06 257.864C2562.28 252.403 2569.79 244.381 2575.59 233.8C2581.74 222.877 2584.81 209.565 2584.81 193.864C2584.81 172.36 2579.18 154.952 2567.91 141.64C2556.65 127.987 2541.29 121.16 2521.83 121.16C2511.93 121.16 2502.03 123.379 2492.14 127.816C2482.24 132.253 2473.87 139.763 2467.05 150.344C2460.56 160.584 2457.32 175.091 2457.32 193.864C2457.32 211.613 2460.73 225.779 2467.56 236.36C2474.39 246.6 2482.92 254.109 2493.16 258.888C2503.4 263.325 2513.47 265.544 2523.37 265.544Z" fill="black"/>
</svg>
